<?xml version="1.0" encoding="utf-8"?>
<!-- Generator: Adobe Illustrator 10.0, SVG Export Plug-In . SVG Version: 3.0.0 Build 76)  -->
<!DOCTYPE svg PUBLIC "-//W3C//DTD SVG 1.0//EN"    "http://www.w3.org/TR/2001/REC-SVG-20010904/DTD/svg10.dtd" [
	<!ENTITY ns_flows "http://ns.adobe.com/Flows/1.0/">
	<!ENTITY ns_extend "http://ns.adobe.com/Extensibility/1.0/">
	<!ENTITY ns_ai "http://ns.adobe.com/AdobeIllustrator/10.0/">
	<!ENTITY ns_graphs "http://ns.adobe.com/Graphs/1.0/">
	<!ENTITY ns_vars "http://ns.adobe.com/Variables/1.0/">
	<!ENTITY ns_imrep "http://ns.adobe.com/ImageReplacement/1.0/">
	<!ENTITY ns_sfw "http://ns.adobe.com/SaveForWeb/1.0/">
	<!ENTITY ns_custom "http://ns.adobe.com/GenericCustomNamespace/1.0/">
	<!ENTITY ns_adobe_xpath "http://ns.adobe.com/XPath/1.0/">
	<!ENTITY ns_svg "http://www.w3.org/2000/svg">
	<!ENTITY ns_xlink "http://www.w3.org/1999/xlink">
]>
<svg 
	 xmlns:x="&ns_extend;" xmlns:i="&ns_ai;" xmlns:graph="&ns_graphs;" i:viewOrigin="15.6875 50.3809" i:rulerOrigin="0 0" i:pageBounds="0 56.6934 56.6934 0"
	 xmlns="&ns_svg;" xmlns:xlink="&ns_xlink;" xmlns:a="http://ns.adobe.com/AdobeSVGViewerExtensions/3.0/"
	 width="28.828" height="43.447" viewBox="0 0 28.828 43.447" overflow="visible" enable-background="new 0 0 28.828 43.447"
	 xml:space="preserve">
	<metadata>
		<variableSets  xmlns="&ns_vars;">
			<variableSet  varSetName="binding1" locked="none">
				<variables></variables>
				<v:sampleDataSets  xmlns="&ns_custom;" xmlns:v="&ns_vars;"></v:sampleDataSets>
			</variableSet>
		</variableSets>
		<sfw  xmlns="&ns_sfw;">
			<slices></slices>
			<sliceSourceBounds  y="6.934" x="15.688" width="28.828" height="43.447" bottomLeftOrigin="true"></sliceSourceBounds>
		</sfw>
	</metadata>
	<g id="Ebene_1" i:layer="yes" i:dimmedPercent="50" i:rgbTrio="#4F008000FFFF">
		<g i:knockout="Off">
			<path i:knockout="Off" d="M0.176,41.104v-9.375c1.699,1.426,3.545,2.495,5.537,3.208s4.004,1.069,6.035,1.069
				c1.191,0,2.231-0.107,3.12-0.322s1.631-0.513,2.227-0.894s1.04-0.83,1.333-1.348s0.439-1.079,0.439-1.685
				c0-0.82-0.234-1.553-0.703-2.197s-1.108-1.24-1.919-1.787s-1.772-1.074-2.886-1.582s-2.314-1.025-3.604-1.553
				c-3.281-1.367-5.728-3.037-7.339-5.01S0,15.273,0,12.48c0-2.188,0.439-4.067,1.318-5.64s2.075-2.866,3.589-3.882
				s3.267-1.763,5.259-2.241S14.268,0,16.494,0c2.188,0,4.126,0.132,5.815,0.396s3.247,0.669,4.673,1.216v8.76
				c-0.703-0.488-1.47-0.918-2.3-1.289s-1.685-0.679-2.563-0.923s-1.753-0.425-2.622-0.542s-1.694-0.176-2.476-0.176
				c-1.074,0-2.051,0.103-2.93,0.308s-1.621,0.493-2.227,0.864s-1.074,0.815-1.406,1.333s-0.498,1.099-0.498,1.743
				c0,0.703,0.186,1.333,0.557,1.89s0.898,1.084,1.582,1.582s1.514,0.986,2.49,1.465s2.08,0.972,3.311,1.479
				c1.68,0.703,3.188,1.45,4.526,2.241s2.485,1.685,3.442,2.681s1.689,2.134,2.197,3.413s0.762,2.769,0.762,4.468
				c0,2.344-0.444,4.312-1.333,5.903s-2.095,2.881-3.618,3.867s-3.296,1.694-5.317,2.124s-4.155,0.645-6.401,0.645
				c-2.305,0-4.497-0.195-6.577-0.586S1.699,41.885,0.176,41.104z"/>
		</g>
	</g>
</svg>
